<svg width="17" height="17" viewBox="0 0 17 17" fill="none" xmlns="http://www.w3.org/2000/svg">
<path fill-rule="evenodd" clip-rule="evenodd" d="M17 7.08339C17 7.03169 16.9943 6.98013 16.983 6.92968L16.0622 2.77318C15.7096 1.14723 14.2664 -0.0096047 12.6027 6.01067e-05H4.39733C2.73467 -0.00826134 1.29306 1.14827 0.940668 2.77318L0.017001 6.92968C0.00567337 6.98013 -2.80924e-05 7.03169 9.6999e-07 7.08339V7.79173C-0.000570518 8.48135 0.251404 9.14732 0.708334 9.66385V13.4584C0.710676 15.4134 2.29496 16.9977 4.25 17.0001H12.75C14.705 16.9977 16.2893 15.4134 16.2917 13.4584V9.66385C16.7486 9.14732 17.0006 8.48135 17 7.79173V7.08339ZM1.41667 7.1606L2.32333 3.0806C2.53507 2.10583 3.39985 1.41206 4.39733 1.41673H4.95833V3.54173C4.95833 3.93293 5.27547 4.25006 5.66667 4.25006C6.05787 4.25006 6.375 3.93293 6.375 3.54173V1.41673H10.625V3.54173C10.625 3.93293 10.9421 4.25006 11.3333 4.25006C11.7245 4.25006 12.0417 3.93293 12.0417 3.54173V1.41673H12.6027C13.6002 1.41206 14.4649 2.10583 14.6767 3.0806L15.5833 7.1606V7.79173C15.5833 8.57413 14.9491 9.20839 14.1667 9.20839H13.4583C12.6759 9.20839 12.0417 8.57413 12.0417 7.79173C12.0417 7.40052 11.7245 7.08339 11.3333 7.08339C10.9421 7.08339 10.625 7.40052 10.625 7.79173C10.625 8.57413 9.99074 9.20839 9.20833 9.20839H7.79167C7.00926 9.20839 6.375 8.57413 6.375 7.79173C6.375 7.40052 6.05787 7.08339 5.66667 7.08339C5.27547 7.08339 4.95833 7.40052 4.95833 7.79173C4.95833 8.57413 4.32407 9.20839 3.54167 9.20839H2.83333C2.05093 9.20839 1.41667 8.57413 1.41667 7.79173V7.1606ZM4.25 15.5834H12.75C13.9236 15.5834 14.875 14.632 14.875 13.4584V10.5351C14.6437 10.595 14.4056 10.6252 14.1667 10.6251H13.4583C12.6447 10.6255 11.8703 10.2752 11.3333 9.66385C10.7964 10.2752 10.022 10.6255 9.20833 10.6251H7.79167C6.97799 10.6255 6.20361 10.2752 5.66667 9.66385C5.12972 10.2752 4.35534 10.6255 3.54167 10.6251H2.83333C2.59436 10.6252 2.35634 10.595 2.125 10.5351V13.4584C2.125 14.632 3.0764 15.5834 4.25 15.5834Z" fill="white"/>
</svg>
