<svg width="14" height="11" viewBox="0 0 14 11" fill="none" xmlns="http://www.w3.org/2000/svg">
<path d="M10.1309 10.2505L13.3799 7.00217C14.2067 6.17125 14.2067 4.8284 13.3799 3.99748L10.1309 0.749127C9.85292 0.480693 9.41114 0.484532 9.13792 0.757755C8.8647 1.03098 8.86086 1.47276 9.12929 1.75069L12.1694 4.79151H1.24995C0.858751 4.79151 0.541626 5.10863 0.541626 5.49983C0.541626 5.89102 0.858751 6.20814 1.24995 6.20814H12.1701L9.12929 9.24896C8.94516 9.4268 8.87131 9.69016 8.93613 9.93781C9.00096 10.1855 9.19436 10.3789 9.44201 10.4437C9.68966 10.5085 9.95301 10.4347 10.1309 10.2505Z" fill="#4B0ACE"/>
</svg>
