<svg width="17" height="17" viewBox="0 0 17 17" fill="none" xmlns="http://www.w3.org/2000/svg">
<path fill-rule="evenodd" clip-rule="evenodd" d="M17 6.72919C17 8.84286 15.3432 11.3079 10.6895 11.3334C10.6481 11.5482 10.6265 11.7663 10.625 11.985V14.1667C10.6007 14.5504 10.7429 14.9259 11.0153 15.1972C11.2877 15.4685 11.6638 15.6092 12.0473 15.5834H12.75C13.1412 15.5834 13.4583 15.9005 13.4583 16.2917C13.4583 16.6829 13.1412 17 12.75 17H4.25C3.8588 17 3.54167 16.6829 3.54167 16.2917C3.54167 15.9005 3.8588 15.5834 4.25 15.5834H4.95833C5.34108 15.608 5.71589 15.4666 5.98709 15.1954C6.25829 14.9242 6.39962 14.5494 6.375 14.1667V11.9857C6.37349 11.7668 6.35191 11.5484 6.31054 11.3334C1.65679 11.3079 0 8.84286 0 6.72919C0.00091409 5.56161 0.816366 4.55292 1.95783 4.3074C1.86362 4.03327 1.77792 3.78181 1.72196 3.59127C1.47117 2.75078 1.63585 1.84109 2.16537 1.14186C2.69919 0.420526 3.54459 -0.00349183 4.44196 2.16648e-05H12.558C13.4554 -0.00349183 14.3008 0.420526 14.8346 1.14186C15.3641 1.84109 15.5288 2.75078 15.278 3.59127C15.2221 3.78181 15.1385 4.03327 15.0422 4.3074C16.1836 4.55292 16.9991 5.56161 17 6.72919ZM15.5833 6.72919C15.5833 6.14239 15.1076 5.66669 14.5208 5.66669C14.5144 5.66669 14.5085 5.66486 14.5028 5.66305C14.4978 5.66149 14.4928 5.65993 14.4875 5.65961C13.8766 7.05108 12.9767 8.29672 11.8476 9.3139C11.6458 9.48623 11.4647 9.68138 11.3078 9.89544C14.4436 9.70419 15.5833 8.16994 15.5833 6.72919ZM1.41667 6.72919C1.41667 6.14239 1.89236 5.66669 2.47917 5.66669C2.48561 5.66669 2.49145 5.66486 2.49722 5.66305C2.50223 5.66149 2.50719 5.65993 2.51246 5.65961C3.12344 7.05108 4.02332 8.29672 5.15242 9.3139C5.3542 9.48623 5.53533 9.68138 5.69217 9.89544C2.55637 9.70419 1.41667 8.16994 1.41667 6.72919ZM7.79167 14.1667C7.79965 14.6606 7.68088 15.1484 7.44671 15.5834H9.55329C9.31911 15.1484 9.20035 14.6606 9.20833 14.1667V11.985C9.20337 10.5427 9.83313 9.1713 10.9303 8.23511C12.3702 6.85928 13.4043 5.11413 13.9195 3.19035C14.0421 2.77827 13.9605 2.33237 13.6999 1.99044C13.4325 1.6281 13.0084 1.41498 12.558 1.41669H4.44196C3.99215 1.41432 3.56811 1.62634 3.30012 1.9876C3.03946 2.32954 2.95786 2.77544 3.08054 3.18752C3.59524 5.11231 4.62933 6.8585 6.06971 8.23511C7.1669 9.17158 7.79665 10.5432 7.79167 11.9857V14.1667Z" fill="black"/>
</svg>
